<svg xmlns="http://www.w3.org/2000/svg" xmlns:xlink="http://www.w3.org/1999/xlink" width="941" zoomAndPan="magnify" viewBox="0 0 705.75 432.749984" height="577" preserveAspectRatio="xMidYMid meet" version="1.0"><defs><g/></defs><g fill="#32c0c1" fill-opacity="1"><g transform="translate(203.934296, 277.150864)"><g><path d="M 1.6875 -24.65625 L 4.359375 -62.78125 C 8.628906 -61.394531 12.363281 -60.253906 15.5625 -59.359375 C 18.757812 -58.472656 21.625 -57.785156 24.15625 -57.296875 C 26.695312 -56.804688 29.0625 -56.546875 31.25 -56.515625 C 33.4375 -56.492188 35.59375 -56.644531 37.71875 -56.96875 C 39 -57.164062 40.582031 -57.769531 42.46875 -58.78125 C 35.90625 -58.9375 29.726562 -59.878906 23.9375 -61.609375 C 18.15625 -63.347656 13.535156 -65.550781 10.078125 -68.21875 C 7.453125 -70.144531 4.875 -72.507812 2.34375 -75.3125 C -0.1875 -78.125 -3.03125 -81.765625 -6.1875 -86.234375 C -10.851562 -93.078125 -13.679688 -99.757812 -14.671875 -106.28125 C -15.523438 -111.820312 -15.273438 -117.054688 -13.921875 -121.984375 C -12.578125 -126.910156 -10.304688 -131.289062 -7.109375 -135.125 C -3.910156 -138.957031 0.171875 -142.195312 5.140625 -144.84375 C 10.117188 -147.488281 15.726562 -149.285156 21.96875 -150.234375 C 23.6875 -150.492188 25.441406 -150.6875 27.234375 -150.8125 C 29.023438 -150.945312 31.363281 -151.085938 34.25 -151.234375 L 34.53125 -156.5 L 68.46875 -156.90625 L 79.765625 -141.390625 L 76.90625 -101.53125 C 70.226562 -103.40625 64.8125 -104.609375 60.65625 -105.140625 C 56.507812 -105.671875 52.375 -105.617188 48.25 -104.984375 L 46.34375 -104.703125 C 50.988281 -103.804688 54.941406 -102.914062 58.203125 -102.03125 C 61.460938 -101.15625 64.296875 -100.175781 66.703125 -99.09375 C 69.117188 -98.007812 71.320312 -96.671875 73.3125 -95.078125 C 75.3125 -93.492188 77.421875 -91.566406 79.640625 -89.296875 C 84.460938 -84.359375 88.539062 -78.804688 91.875 -72.640625 C 95.21875 -66.472656 97.289062 -60.765625 98.09375 -55.515625 C 99.03125 -49.398438 98.675781 -43.640625 97.03125 -38.234375 C 95.382812 -32.828125 92.632812 -27.976562 88.78125 -23.6875 C 84.9375 -19.394531 80.1875 -15.757812 74.53125 -12.78125 C 68.882812 -9.8125 62.441406 -7.773438 55.203125 -6.671875 C 48.109375 -5.597656 41.210938 -5.347656 34.515625 -5.921875 C 27.816406 -6.492188 20.453125 -7.835938 12.421875 -9.953125 Z M 5.921875 -28.359375 C 11.441406 -26.441406 17.722656 -25.253906 24.765625 -24.796875 C 31.804688 -24.347656 38.734375 -24.644531 45.546875 -25.6875 C 51.796875 -26.644531 57.398438 -28.476562 62.359375 -31.1875 C 67.328125 -33.90625 71.46875 -37.226562 74.78125 -41.15625 C 78.101562 -45.082031 80.476562 -49.515625 81.90625 -54.453125 C 83.332031 -59.390625 83.625 -64.625 82.78125 -70.15625 C 80.769531 -83.363281 73.597656 -92.300781 61.265625 -96.96875 C 60.023438 -97.5 58.832031 -97.929688 57.6875 -98.265625 C 56.550781 -98.597656 55.226562 -98.9375 53.71875 -99.28125 C 52.207031 -99.632812 50.375 -99.972656 48.21875 -100.296875 C 46.0625 -100.628906 43.347656 -101.050781 40.078125 -101.5625 C 36.660156 -102.0625 33.820312 -102.570312 31.5625 -103.09375 C 29.300781 -103.625 27.539062 -104.226562 26.28125 -104.90625 C 25.019531 -105.59375 24.09375 -106.429688 23.5 -107.421875 C 22.914062 -108.421875 22.515625 -109.628906 22.296875 -111.046875 C 21.796875 -114.304688 22.816406 -117.113281 25.359375 -119.46875 C 27.898438 -121.820312 31.585938 -123.367188 36.421875 -124.109375 C 42.109375 -124.972656 50.578125 -124.234375 61.828125 -121.890625 L 64.25 -153.203125 L 37.90625 -152.875 L 37.46875 -147.359375 C 34.238281 -147.453125 31.613281 -147.453125 29.59375 -147.359375 C 27.582031 -147.273438 25.296875 -147.035156 22.734375 -146.640625 C 16.921875 -145.753906 11.757812 -144.132812 7.25 -141.78125 C 2.738281 -139.425781 -0.953125 -136.5 -3.828125 -133 C -6.710938 -129.507812 -8.757812 -125.53125 -9.96875 -121.0625 C -11.175781 -116.59375 -11.390625 -111.804688 -10.609375 -106.703125 C -9.179688 -97.328125 -4.875 -90.28125 2.3125 -85.5625 C 9.5 -80.851562 20.53125 -77.816406 35.40625 -76.453125 C 40.4375 -75.910156 44.15625 -74.875 46.5625 -73.34375 C 48.976562 -71.820312 50.425781 -69.503906 50.90625 -66.390625 C 51.394531 -63.117188 50.476562 -60.289062 48.15625 -57.90625 C 45.832031 -55.519531 42.472656 -53.992188 38.078125 -53.328125 C 33.953125 -52.691406 29.515625 -52.703125 24.765625 -53.359375 C 20.015625 -54.015625 14.363281 -55.363281 7.8125 -57.40625 Z M 5.921875 -28.359375 "/></g></g></g><g fill="#32c0c1" fill-opacity="1"><g transform="translate(310.857366, 260.838988)"><g/></g></g><g fill="#32c0c1" fill-opacity="1"><g transform="translate(301.802464, 262.031236)"><g><path d="M 20.90625 -17.6875 L 20.09375 -89.203125 L 6.953125 -89.0625 L -1.203125 -105.546875 L 8.046875 -143.796875 L 51.359375 -144.296875 L 52.609375 -149.265625 L 87.5 -149.65625 L 95.875 -132.9375 L 85.375 -89.953125 L 65.765625 -89.734375 L 66.78125 -0.765625 L 29.953125 -0.34375 Z M 54.328125 -109.84375 L 74.578125 -110.078125 L 82.796875 -145.9375 L 55.4375 -145.625 L 54.203125 -140.4375 L 11.328125 -139.9375 L 3.703125 -109.28125 L 23.53125 -109.5 L 24.546875 -20.3125 L 55.34375 -20.65625 Z M 54.328125 -109.84375 "/></g></g></g><g fill="#32c0c1" fill-opacity="1"><g transform="translate(397.026409, 260.945922)"><g/></g></g><g fill="#32c0c1" fill-opacity="1"><g transform="translate(387.067833, 259.179698)"><g><path d="M 21.015625 -87.328125 L 19.296875 -87.578125 L 13.296875 -105.390625 L 28.359375 -141.125 L 65.046875 -135.96875 L 71.109375 -117.265625 L 60.875 -44.515625 C 61.6875 -44.109375 62.363281 -43.796875 62.90625 -43.578125 C 63.457031 -43.359375 64.164062 -43.1875 65.03125 -43.0625 C 68.71875 -42.539062 72.046875 -43.523438 75.015625 -46.015625 C 76.628906 -47.234375 77.820312 -49.054688 78.59375 -51.484375 C 79.375 -53.910156 80.164062 -57.972656 80.96875 -63.671875 L 90.640625 -132.359375 L 127.765625 -127.125 L 133.5625 -109.5625 L 123.703125 -39.578125 C 122.828125 -33.328125 121.953125 -28.125 121.078125 -23.96875 C 120.203125 -19.8125 119.1875 -16.21875 118.03125 -13.1875 C 116.882812 -10.164062 115.421875 -7.507812 113.640625 -5.21875 C 111.867188 -2.925781 109.722656 -0.582031 107.203125 1.8125 C 102.335938 6.5 96.398438 9.800781 89.390625 11.71875 C 82.378906 13.632812 74.820312 14.019531 66.71875 12.875 C 59.457031 11.851562 52.859375 9.757812 46.921875 6.59375 C 40.992188 3.4375 36.253906 -0.484375 32.703125 -5.171875 C 30.265625 -8.421875 27.84375 -12.570312 25.4375 -17.625 C 23.03125 -22.6875 21.039062 -27.863281 19.46875 -33.15625 C 17.863281 -38.3125 16.953125 -43.1875 16.734375 -47.78125 C 16.515625 -52.382812 16.859375 -57.890625 17.765625 -64.296875 Z M 61.71875 -132.5 L 30.578125 -136.890625 L 18.421875 -107.71875 L 27.15625 -106.484375 L 22.359375 -72.328125 C 21.617188 -67.066406 21.078125 -62.71875 20.734375 -59.28125 C 20.398438 -55.851562 20.269531 -52.863281 20.34375 -50.3125 C 20.414062 -47.769531 20.703125 -45.410156 21.203125 -43.234375 C 21.703125 -41.066406 22.421875 -38.691406 23.359375 -36.109375 C 26.117188 -28.898438 30.695312 -23.066406 37.09375 -18.609375 C 43.5 -14.148438 51.539062 -11.238281 61.21875 -9.875 C 70.039062 -8.632812 77.898438 -9.085938 84.796875 -11.234375 C 91.691406 -13.378906 97.5 -17.238281 102.21875 -22.8125 C 104.101562 -25.007812 105.695312 -27.144531 107 -29.21875 C 108.3125 -31.289062 109.40625 -33.640625 110.28125 -36.265625 C 111.164062 -38.890625 111.972656 -42.03125 112.703125 -45.6875 C 113.441406 -49.351562 114.191406 -53.890625 114.953125 -59.296875 L 124.015625 -123.734375 L 93.5 -128.03125 L 83.625 -57.84375 C 83.039062 -53.71875 82.351562 -50.625 81.5625 -48.5625 C 80.769531 -46.507812 79.617188 -44.785156 78.109375 -43.390625 C 74.441406 -39.992188 69.914062 -38.675781 64.53125 -39.4375 C 58.539062 -40.28125 54.515625 -43.164062 52.453125 -48.09375 C 51.703125 -49.9375 51.289062 -51.910156 51.21875 -54.015625 C 51.15625 -56.128906 51.394531 -59.113281 51.9375 -62.96875 Z M 61.71875 -132.5 "/></g></g></g><g fill="#32c0c1" fill-opacity="1"><g transform="translate(510.814572, 276.599801)"><g/></g></g><g fill="#f53098" fill-opacity="1"><g transform="translate(185.374188, 391.509488)"><g><path d="M 43.953125 0.46875 C 42.546875 0.46875 41.257812 -0.078125 40.09375 -1.171875 C 32.207031 -8.566406 23.539062 -13.691406 14.09375 -16.546875 C 14.375 -8.972656 14.515625 -4.769531 14.515625 -3.9375 C 14.515625 -2.457031 13.992188 -1.203125 12.953125 -0.171875 C 11.921875 0.847656 10.625 1.359375 9.0625 1.359375 C 7.5 1.359375 6.195312 0.847656 5.15625 -0.171875 C 4.113281 -1.203125 3.59375 -2.457031 3.59375 -3.9375 C 3.59375 -5.894531 3.617188 -8.816406 3.671875 -12.703125 C 3.722656 -16.597656 3.75 -19.519531 3.75 -21.46875 L 3.828125 -52.984375 C 3.828125 -54.671875 4.332031 -56.203125 5.34375 -57.578125 C 6.675781 -59.347656 8.515625 -60.144531 10.859375 -59.96875 C 17.179688 -59.5 20.421875 -59.25 20.578125 -59.21875 C 24.222656 -58.78125 27.316406 -57.910156 29.859375 -56.609375 C 40.972656 -51.015625 46.53125 -44.078125 46.53125 -35.796875 C 46.53125 -32.390625 45.363281 -29.378906 43.03125 -26.765625 C 40.707031 -24.148438 37.21875 -21.941406 32.5625 -20.140625 C 39.457031 -16.285156 44.648438 -12.359375 48.140625 -8.359375 C 49.046875 -7.316406 49.5 -6.15625 49.5 -4.875 C 49.5 -3.414062 48.953125 -2.160156 47.859375 -1.109375 C 46.765625 -0.0546875 45.460938 0.46875 43.953125 0.46875 Z M 18.9375 -48.640625 C 18.726562 -48.671875 17.203125 -48.773438 14.359375 -48.953125 L 14.359375 -28.21875 C 15.015625 -28.195312 15.585938 -28.1875 16.078125 -28.1875 C 22.460938 -28.1875 27.1875 -28.976562 30.25 -30.5625 C 31.582031 -31.238281 32.800781 -32.132812 33.90625 -33.25 C 35.007812 -34.375 35.5625 -35.222656 35.5625 -35.796875 C 35.5625 -38.710938 33.710938 -41.523438 30.015625 -44.234375 C 26.503906 -46.785156 22.8125 -48.253906 18.9375 -48.640625 Z M 18.9375 -48.640625 "/></g></g></g><g fill="#f53098" fill-opacity="1"><g transform="translate(236.550556, 391.509488)"><g><path d="M 23.65625 1.796875 C 17.4375 1.796875 12.347656 0.3125 8.390625 -2.65625 C 4.015625 -5.9375 1.828125 -10.554688 1.828125 -16.515625 C 1.828125 -23.097656 3.5625 -28.664062 7.03125 -33.21875 C 10.882812 -38.269531 16.078125 -40.796875 22.609375 -40.796875 C 27.128906 -40.796875 30.890625 -40.066406 33.890625 -38.609375 C 37.816406 -36.679688 39.78125 -33.6875 39.78125 -29.625 C 39.78125 -26.769531 38.179688 -24.234375 34.984375 -22.015625 C 33.523438 -21.003906 30.597656 -19.519531 26.203125 -17.5625 L 13.046875 -11.75 C 14.285156 -10.394531 15.789062 -9.378906 17.5625 -8.703125 C 19.332031 -8.023438 21.363281 -7.6875 23.65625 -7.6875 C 27.144531 -7.6875 30.097656 -8.40625 32.515625 -9.84375 C 34.679688 -11.113281 36.414062 -11.75 37.71875 -11.75 C 40.414062 -11.75 41.765625 -10.4375 41.765625 -7.8125 C 41.765625 -4.84375 39.59375 -2.421875 35.25 -0.546875 C 31.601562 1.015625 27.738281 1.796875 23.65625 1.796875 Z M 22.609375 -31.34375 C 20.179688 -31.34375 18.109375 -30.535156 16.390625 -28.921875 C 14.671875 -27.316406 13.296875 -24.898438 12.265625 -21.671875 C 15.203125 -22.941406 18.128906 -24.203125 21.046875 -25.453125 C 24.554688 -27.035156 27.351562 -28.503906 29.4375 -29.859375 C 27.6875 -30.847656 25.410156 -31.34375 22.609375 -31.34375 Z M 22.609375 -31.34375 "/></g></g></g><g fill="#f53098" fill-opacity="1"><g transform="translate(281.246926, 391.509488)"><g><path d="M 15.578125 -35.71875 C 17.472656 -37.59375 19.507812 -38.988281 21.6875 -39.90625 C 23.863281 -40.832031 26.1875 -41.296875 28.65625 -41.296875 C 33.101562 -41.296875 36.304688 -40.050781 38.265625 -37.5625 C 39.710938 -35.6875 40.59375 -32.804688 40.90625 -28.921875 C 41.039062 -25.722656 41.1875 -22.507812 41.34375 -19.28125 C 41.757812 -15.09375 42.019531 -12.546875 42.125 -11.640625 C 42.488281 -8.742188 42.929688 -6.21875 43.453125 -4.0625 C 43.578125 -3.507812 43.640625 -3.023438 43.640625 -2.609375 C 43.640625 -1.148438 43.085938 0.0507812 41.984375 1 C 40.878906 1.945312 39.585938 2.421875 38.109375 2.421875 C 35.472656 2.421875 33.765625 1.117188 32.984375 -1.484375 C 32.359375 -3.585938 31.785156 -6.554688 31.265625 -10.390625 C 30.796875 -14.054688 30.5625 -17.070312 30.5625 -19.4375 C 30.5625 -20.09375 30.59375 -21.078125 30.65625 -22.390625 C 30.726562 -23.703125 30.765625 -24.6875 30.765625 -25.34375 C 30.765625 -27.257812 30.738281 -28.375 30.6875 -28.6875 C 30.445312 -30.125 29.769531 -30.84375 28.65625 -30.84375 C 25.769531 -30.84375 23.15625 -29.515625 20.8125 -26.859375 C 19.613281 -25.535156 17.972656 -23.007812 15.890625 -19.28125 C 15.890625 -9.863281 15.429688 -4.191406 14.515625 -2.265625 C 13.503906 -0.128906 11.894531 0.9375 9.6875 0.9375 C 8.226562 0.9375 6.929688 0.453125 5.796875 -0.515625 C 4.660156 -1.492188 4.09375 -2.703125 4.09375 -4.140625 C 4.09375 -4.628906 4.238281 -5.316406 4.53125 -6.203125 C 4.707031 -6.773438 4.863281 -10.289062 5 -16.75 C 4.863281 -21.976562 4.890625 -30.679688 5.078125 -42.859375 L 5.15625 -44.15625 C 5.3125 -47.226562 5.390625 -49.285156 5.390625 -50.328125 C 5.390625 -51.128906 5.265625 -52.316406 5.015625 -53.890625 C 4.765625 -55.460938 4.640625 -56.65625 4.640625 -57.46875 C 4.640625 -58.945312 5.171875 -60.160156 6.234375 -61.109375 C 7.304688 -62.066406 8.597656 -62.546875 10.109375 -62.546875 C 12.679688 -62.546875 14.410156 -61.164062 15.296875 -58.40625 C 15.796875 -56.84375 16.046875 -54.445312 16.046875 -51.21875 C 16.046875 -48.613281 15.96875 -45.972656 15.8125 -43.296875 C 15.65625 -40.742188 15.578125 -38.21875 15.578125 -35.71875 Z M 15.578125 -35.71875 "/></g></g></g><g fill="#f53098" fill-opacity="1"><g transform="translate(327.426669, 391.509488)"><g><path d="M 23.65625 1.796875 C 17.4375 1.796875 12.347656 0.3125 8.390625 -2.65625 C 4.015625 -5.9375 1.828125 -10.554688 1.828125 -16.515625 C 1.828125 -23.097656 3.5625 -28.664062 7.03125 -33.21875 C 10.882812 -38.269531 16.078125 -40.796875 22.609375 -40.796875 C 27.128906 -40.796875 30.890625 -40.066406 33.890625 -38.609375 C 37.816406 -36.679688 39.78125 -33.6875 39.78125 -29.625 C 39.78125 -26.769531 38.179688 -24.234375 34.984375 -22.015625 C 33.523438 -21.003906 30.597656 -19.519531 26.203125 -17.5625 L 13.046875 -11.75 C 14.285156 -10.394531 15.789062 -9.378906 17.5625 -8.703125 C 19.332031 -8.023438 21.363281 -7.6875 23.65625 -7.6875 C 27.144531 -7.6875 30.097656 -8.40625 32.515625 -9.84375 C 34.679688 -11.113281 36.414062 -11.75 37.71875 -11.75 C 40.414062 -11.75 41.765625 -10.4375 41.765625 -7.8125 C 41.765625 -4.84375 39.59375 -2.421875 35.25 -0.546875 C 31.601562 1.015625 27.738281 1.796875 23.65625 1.796875 Z M 22.609375 -31.34375 C 20.179688 -31.34375 18.109375 -30.535156 16.390625 -28.921875 C 14.671875 -27.316406 13.296875 -24.898438 12.265625 -21.671875 C 15.203125 -22.941406 18.128906 -24.203125 21.046875 -25.453125 C 24.554688 -27.035156 27.351562 -28.503906 29.4375 -29.859375 C 27.6875 -30.847656 25.410156 -31.34375 22.609375 -31.34375 Z M 22.609375 -31.34375 "/></g></g></g><g fill="#f53098" fill-opacity="1"><g transform="translate(372.123039, 391.509488)"><g><path d="M 16 -5.734375 C 16 -0.796875 14.207031 1.671875 10.625 1.671875 C 9.0625 1.671875 7.769531 1.175781 6.75 0.1875 C 5.738281 -0.789062 5.234375 -2.0625 5.234375 -3.625 L 5.234375 -57.625 C 5.234375 -59.132812 5.78125 -60.367188 6.875 -61.328125 C 7.914062 -62.210938 9.203125 -62.65625 10.734375 -62.65625 C 12.273438 -62.65625 13.535156 -62.191406 14.515625 -61.265625 C 15.503906 -60.347656 16 -59.132812 16 -57.625 Z M 16 -5.734375 "/></g></g></g><g fill="#f53098" fill-opacity="1"><g transform="translate(394.022297, 391.509488)"><g><path d="M 22.015625 2.296875 C 19.773438 2.296875 17.421875 2.035156 14.953125 1.515625 L 14.90625 17.453125 C 14.90625 18.960938 14.398438 20.210938 13.390625 21.203125 C 12.378906 22.191406 11.09375 22.6875 9.53125 22.6875 C 7.96875 22.6875 6.675781 22.191406 5.65625 21.203125 C 4.644531 20.210938 4.140625 18.960938 4.140625 17.453125 C 4.140625 16.222656 4.164062 11.367188 4.21875 2.890625 C 4.269531 -3.410156 4.269531 -8.550781 4.21875 -12.53125 C 4.132812 -18.15625 3.953125 -22.992188 3.671875 -27.046875 C 3.273438 -32.648438 3.078125 -35.21875 3.078125 -34.75 C 3.078125 -36.90625 3.5625 -38.75 4.53125 -40.28125 C 5.644531 -42.03125 7.15625 -42.90625 9.0625 -42.90625 C 10.519531 -42.90625 11.738281 -42.410156 12.71875 -41.421875 C 13.707031 -40.429688 14.203125 -39.25 14.203125 -37.875 L 14.171875 -37.484375 C 15.910156 -38.472656 17.660156 -39.207031 19.421875 -39.6875 C 21.179688 -40.164062 22.945312 -40.40625 24.71875 -40.40625 C 30.695312 -40.40625 35.066406 -37.867188 37.828125 -32.796875 C 39.878906 -28.960938 40.90625 -24.003906 40.90625 -17.921875 C 40.90625 -12.222656 39.28125 -7.5 36.03125 -3.75 C 32.539062 0.28125 27.867188 2.296875 22.015625 2.296875 Z M 24.71875 -29.984375 C 23.070312 -29.984375 21.398438 -29.597656 19.703125 -28.828125 C 18.015625 -28.054688 16.3125 -26.90625 14.59375 -25.375 C 14.90625 -20.007812 15.0625 -14.632812 15.0625 -9.25 C 17.382812 -8.5 19.703125 -8.125 22.015625 -8.125 C 24.703125 -8.125 26.757812 -9.070312 28.1875 -10.96875 C 29.488281 -12.6875 30.140625 -15.003906 30.140625 -17.921875 C 30.140625 -21.429688 29.984375 -23.863281 29.671875 -25.21875 C 28.910156 -28.394531 27.257812 -29.984375 24.71875 -29.984375 Z M 24.71875 -29.984375 "/></g></g></g><g fill="#f53098" fill-opacity="1"><g transform="translate(436.766872, 391.509488)"><g><path d="M 23.65625 1.796875 C 17.4375 1.796875 12.347656 0.3125 8.390625 -2.65625 C 4.015625 -5.9375 1.828125 -10.554688 1.828125 -16.515625 C 1.828125 -23.097656 3.5625 -28.664062 7.03125 -33.21875 C 10.882812 -38.269531 16.078125 -40.796875 22.609375 -40.796875 C 27.128906 -40.796875 30.890625 -40.066406 33.890625 -38.609375 C 37.816406 -36.679688 39.78125 -33.6875 39.78125 -29.625 C 39.78125 -26.769531 38.179688 -24.234375 34.984375 -22.015625 C 33.523438 -21.003906 30.597656 -19.519531 26.203125 -17.5625 L 13.046875 -11.75 C 14.285156 -10.394531 15.789062 -9.378906 17.5625 -8.703125 C 19.332031 -8.023438 21.363281 -7.6875 23.65625 -7.6875 C 27.144531 -7.6875 30.097656 -8.40625 32.515625 -9.84375 C 34.679688 -11.113281 36.414062 -11.75 37.71875 -11.75 C 40.414062 -11.75 41.765625 -10.4375 41.765625 -7.8125 C 41.765625 -4.84375 39.59375 -2.421875 35.25 -0.546875 C 31.601562 1.015625 27.738281 1.796875 23.65625 1.796875 Z M 22.609375 -31.34375 C 20.179688 -31.34375 18.109375 -30.535156 16.390625 -28.921875 C 14.671875 -27.316406 13.296875 -24.898438 12.265625 -21.671875 C 15.203125 -22.941406 18.128906 -24.203125 21.046875 -25.453125 C 24.554688 -27.035156 27.351562 -28.503906 29.4375 -29.859375 C 27.6875 -30.847656 25.410156 -31.34375 22.609375 -31.34375 Z M 22.609375 -31.34375 "/></g></g></g><g fill="#f53098" fill-opacity="1"><g transform="translate(481.463231, 391.509488)"><g><path d="M 36.703125 -28.140625 C 36.460938 -24.160156 34.648438 -22.171875 31.265625 -22.171875 C 27.992188 -22.171875 26.359375 -23.863281 26.359375 -27.25 L 26.15625 -31.1875 C 20.300781 -30.25 16.109375 -27.242188 13.578125 -22.171875 L 13.625 -2.53125 C 13.625 -1.050781 13.113281 0.171875 12.09375 1.140625 C 11.082031 2.117188 9.796875 2.609375 8.234375 2.609375 C 6.617188 2.609375 5.367188 2.085938 4.484375 1.046875 C 3.648438 0.117188 3.234375 -1.070312 3.234375 -2.53125 L 3.234375 -28.109375 C 3.234375 -28.910156 3.257812 -30.113281 3.3125 -31.71875 C 3.363281 -33.320312 3.390625 -34.523438 3.390625 -35.328125 C 3.390625 -36.785156 3.828125 -38 4.703125 -38.96875 C 5.578125 -39.945312 6.820312 -40.4375 8.4375 -40.4375 C 11.320312 -40.4375 13.035156 -38.957031 13.578125 -36 C 18.191406 -39.425781 23.304688 -41.140625 28.921875 -41.140625 C 34.128906 -41.140625 36.734375 -37.679688 36.734375 -30.765625 C 36.734375 -29.429688 36.722656 -28.554688 36.703125 -28.140625 Z M 36.703125 -28.140625 "/></g></g></g><g fill="#f53098" fill-opacity="1"><g transform="translate(519.880132, 391.509488)"><g/></g></g></svg>